<svg width="512" height="512" viewBox="0 0 120 120" fill="none" xmlns="http://www.w3.org/2000/svg" role="img" aria-label="Dashtock ikon">
  <defs>
    <linearGradient id="dt-bg" x1="16" y1="12" x2="104" y2="108" gradientUnits="userSpaceOnUse">
      <stop stop-color="#ec4899"/>
      <stop offset="0.42" stop-color="#6366f1"/>
      <stop offset="1" stop-color="#0f172a"/>
    </linearGradient>
    <linearGradient id="dt-accent" x1="48" y1="36" x2="96" y2="84" gradientUnits="userSpaceOnUse">
      <stop stop-color="#fce7f3"/>
      <stop offset="1" stop-color="#e0e7ff"/>
    </linearGradient>
    <linearGradient id="dt-shine" x1="24" y1="16" x2="96" y2="104" gradientUnits="userSpaceOnUse">
      <stop stop-color="#ffffff" stop-opacity="0.38"/>
      <stop offset="0.45" stop-color="#ffffff" stop-opacity="0"/>
    </linearGradient>
  </defs>
  <rect x="8" y="8" width="104" height="104" rx="26" fill="url(#dt-bg)"/>
  <rect x="8" y="8" width="104" height="104" rx="26" stroke="rgba(255,255,255,0.16)" stroke-width="1.2"/>
  <path d="M22 28 C38 20 82 22 98 36 L94 44 C78 34 42 32 28 40 Z" fill="url(#dt-shine)"/>
  <g stroke="url(#dt-accent)" stroke-width="3.5" stroke-linecap="round" opacity="0.95">
    <line x1="72" y1="44" x2="92" y2="44"/>
    <line x1="72" y1="56" x2="88" y2="56"/>
    <line x1="72" y1="68" x2="84" y2="68"/>
  </g>
  <path d="M36 34 V86" stroke="#ffffff" stroke-width="7.5" stroke-linecap="round"/>
  <path d="M36 34 H52 C72 34 84 48 84 60 C84 72 72 86 52 86 H36" stroke="#ffffff" stroke-width="7.5" stroke-linecap="round" stroke-linejoin="round" fill="none"/>
  <path d="M78 76 L92 62 M92 62 H82 M92 62 V72" stroke="#f9a8d4" stroke-width="4" stroke-linecap="round" stroke-linejoin="round"/>
</svg>
