<svg width="800" height="200" viewBox="0 0 800 200" fill="none" xmlns="http://www.w3.org/2000/svg" role="img" aria-label="Dashtock logo">
  <defs>
    <linearGradient id="dtf-bg" x1="16" y1="12" x2="104" y2="108" gradientUnits="userSpaceOnUse">
      <stop stop-color="#ec4899"/>
      <stop offset="0.42" stop-color="#6366f1"/>
      <stop offset="1" stop-color="#0f172a"/>
    </linearGradient>
    <linearGradient id="dtf-accent" x1="48" y1="36" x2="96" y2="84" gradientUnits="userSpaceOnUse">
      <stop stop-color="#fce7f3"/>
      <stop offset="1" stop-color="#e0e7ff"/>
    </linearGradient>
    <linearGradient id="dtf-shine" x1="24" y1="16" x2="96" y2="104" gradientUnits="userSpaceOnUse">
      <stop stop-color="#ffffff" stop-opacity="0.38"/>
      <stop offset="0.45" stop-color="#ffffff" stop-opacity="0"/>
    </linearGradient>
    <linearGradient id="dtf-text" x1="200" y1="48" x2="760" y2="152" gradientUnits="userSpaceOnUse">
      <stop stop-color="#fce7f3"/>
      <stop offset="0.5" stop-color="#e0e7ff"/>
      <stop offset="1" stop-color="#c7d2fe"/>
    </linearGradient>
  </defs>
  <g transform="translate(24 28) scale(1.2)">
    <rect x="8" y="8" width="104" height="104" rx="26" fill="url(#dtf-bg)"/>
    <rect x="8" y="8" width="104" height="104" rx="26" stroke="rgba(255,255,255,0.16)" stroke-width="1.2"/>
    <path d="M22 28 C38 20 82 22 98 36 L94 44 C78 34 42 32 28 40 Z" fill="url(#dtf-shine)"/>
    <g stroke="url(#dtf-accent)" stroke-width="3.5" stroke-linecap="round" opacity="0.95">
      <line x1="72" y1="44" x2="92" y2="44"/>
      <line x1="72" y1="56" x2="88" y2="56"/>
      <line x1="72" y1="68" x2="84" y2="68"/>
    </g>
    <path d="M36 34 V86" stroke="#ffffff" stroke-width="7.5" stroke-linecap="round"/>
    <path d="M36 34 H52 C72 34 84 48 84 60 C84 72 72 86 52 86 H36" stroke="#ffffff" stroke-width="7.5" stroke-linecap="round" stroke-linejoin="round" fill="none"/>
    <path d="M78 76 L92 62 M92 62 H82 M92 62 V72" stroke="#f9a8d4" stroke-width="4" stroke-linecap="round" stroke-linejoin="round"/>
  </g>
  <text x="188" y="118" fill="url(#dtf-text)" font-family="Space Grotesk, Segoe UI, system-ui, sans-serif" font-size="64" font-weight="700" letter-spacing="-0.02em">Dashtock</text>
  <text x="192" y="148" fill="#a5b4fc" font-family="Inter, Segoe UI, system-ui, sans-serif" font-size="18" font-weight="500" letter-spacing="0.12em">STOCK - DASHBOARD</text>
</svg>
