<?xml version="1.0" encoding="UTF-8"?>
<svg xmlns="http://www.w3.org/2000/svg" version="1.1" xmlns:xlink="http://www.w3.org/1999/xlink" viewBox="0 0 1500 1500">
  <defs>
    <style>
      .cls-1 {
        opacity: 0;
      }

      .cls-2 {
        fill: #fff;
      }

      .cls-3 {
        fill: url(#Adsız_degrade_8);
      }
    </style>
    <linearGradient id="Adsız_degrade_8" data-name="Adsız degrade 8" x1="0" y1="750" x2="1500" y2="750" gradientUnits="userSpaceOnUse">
      <stop offset="0" stop-color="#6025be"/>
      <stop offset="1" stop-color="#7b39eb"/>
    </linearGradient>
  </defs>
  <!-- Generator: Adobe Illustrator 28.6.0, SVG Export Plug-In . SVG Version: 1.2.0 Build 709)  -->
  <g>
    <g id="katman_1">
      <g>
        <rect class="cls-3" width="1500" height="1500" rx="337.3" ry="337.3"/>
        <g class="cls-1">
          <image width="4901" height="5189" transform="translate(-36 -36) scale(.2)" xlink:href="Başlıksız-2-1.png"/>
        </g>
        <path class="cls-2" d="M318.2,926.4l-3.7-56.2c-.6-9.3,11.1-13.9,16.9-6.7l55.7,68.4,174.7-278.5c34.3-54.6,106.4-71.2,161-36.9l.4.2-257.9,411.2-39.6,63.1-82.2,131.1c-2.1,3.4-7.4,2.1-7.7-2l-17.7-293.8Z"/>
        <path class="cls-2" d="M790.2,275.5h-269.8c0,99.7,80.8,180.5,180.5,180.5h12v-.2h70.5c177.6,0,302.3,122,302.3,294.2s-124.7,294.2-302.3,294.2h-70.5v-.2h0c-44.2,0-85.3,22.7-108.8,60.2l-75.4,120.3h261.5c282,0,493.4-203.3,493.4-474.5s-211.5-474.5-493.4-474.5Z"/>
        <path class="cls-2" d="M842.3,790.1l-14.6-243.2c-1.2-19.8-27.1-26.4-37.6-9.6l-55.3,88.2-39.6,63.1-243,387.4h0l-92.8,148h65.3c45.5,0,87.8-23.4,112-61.9h0s0,0,0,0l236.8-377.5,54.8,67.3c6.1,7.6,18.4,2.8,17.7-7l-3.6-54.8Z"/>
      </g>
    </g>
  </g>
</svg>