<?xml version="1.0" encoding="UTF-8"?>
<svg xmlns="http://www.w3.org/2000/svg" viewBox="0 0 6750 1500" role="img" aria-label="Dashtock">
  <defs>
    <linearGradient id="dsFullMarkGrad" x1="0" y1="750" x2="1500" y2="750" gradientUnits="userSpaceOnUse">
      <stop offset="0" stop-color="#6025be"/>
      <stop offset="1" stop-color="#7b39eb"/>
    </linearGradient>
  </defs>
  <g>
    <rect x="0" y="0" width="1500" height="1500" rx="337.3" ry="337.3" fill="url(#dsFullMarkGrad)"/>
    <path fill="#fff" d="M318,926.6l-3.7-56.2c-.6-9.3,11.1-13.9,16.9-6.7l55.7,68.4,174.7-278.5c34.3-54.6,106.4-71.2,161-36.9l.4.2-257.9,411.2-39.6,63.1-82.2,131.1c-2.1,3.4-7.4,2.1-7.7-2l-17.7-293.8Z"/>
    <path fill="#fff" d="M789.9,275.8h-269.8c0,99.7,80.8,180.5,180.5,180.5h12v-.2h70.5c177.6,0,302.3,122,302.3,294.2s-124.7,294.2-302.3,294.2h-70.5v-.2h0c-44.2,0-85.3,22.7-108.8,60.2l-75.4,120.3h261.5c282,0,493.4-203.3,493.4-474.5s-211.5-474.5-493.4-474.5Z"/>
    <path fill="#fff" d="M842.1,790.4l-14.6-243.2c-1.2-19.8-27.1-26.4-37.6-9.6l-55.3,88.2-39.6,63.1-243,387.4h0l-92.8,148h65.3c45.5,0,87.8-23.4,112-61.9h0s0,0,0,0l236.8-377.5,54.8,67.3c6.1,7.6,18.4,2.8,17.7-7l-3.6-54.8Z"/>
  </g>
  <g fill="#fff">
    <path d="M2484.2,742.4c0,241.6-163,410.5-436.3,410.5h-255.7V331.9h255.7c273.3,0,436.3,168.9,436.3,410.5ZM2324.7,742.4c0-183-127.8-262.7-276.8-262.7h-96.2v525.5h96.2c149,0,276.8-79.8,276.8-262.7Z"/>
    <path d="M3076.5,794v358.9h-149v-63.3c-28.2,45.7-93.8,78.6-173.6,78.6s-211.1-48.1-211.1-174.8c0-195.9,241.6-195.9,320.2-195.9h64.5c-1.2-85.6-31.7-123.2-123.2-123.2s-102,28.1-124.3,43.4l-102-77.4c65.7-59.8,147.8-96.2,247.5-96.2,188.8,0,251,107.9,251,249.8ZM2927.5,891.3h-9.4c-106.7,0-222.9-1.2-222.9,88s29.3,80.9,103.2,80.9,116.1-43.4,129-68v-100.9Z"/>
    <path d="M3672.3,969.9c0,117.3-85.6,198.2-252.2,198.2s-228.7-45.7-255.7-145.4l143.1-44.6c4.7,24.6,28.2,64.5,114.9,64.5s97.4-22.3,97.4-62.2-85.6-54-156-69.2c-114.9-23.5-173.6-78.6-173.6-180.6s93.8-186.5,233.4-186.5,202.9,50.4,227.5,153.7l-134.9,32.8c-7-30.5-36.4-61-92.7-61s-88,16.4-88,61,79.8,56.3,126.7,66.9c145.4,31.7,210,71.5,210,172.4Z"/>
    <path d="M4311.6,791.6v361.3h-149v-330.8c0-76.2-31.7-133.7-116.1-133.7s-126.7,65.7-126.7,133.7v330.8h-147.8V331.9h147.8v299.1c32.8-48.1,86.8-86.8,173.6-86.8,150.1,0,218.2,122,218.2,247.5Z"/>
    <path d="M4638.8,694.3v217c0,68,9.4,107.9,91.5,107.9s24.6-1.2,35.2-2.3v136.1c-15.2,4.7-31.7,8.2-62.2,8.2-152.5,0-213.5-102-213.5-225.2v-241.6h-84.4v-136.1h84.4v-124.3h149v124.3h126.7v136.1h-126.7Z"/>
    <path d="M5469.2,856.1c0,173.6-134.9,312-314.3,312s-313.2-138.4-313.2-312,134.9-312,313.2-312,314.3,137.2,314.3,312ZM5316.7,856.1c0-92.7-62.2-168.9-161.9-168.9s-160.7,76.2-160.7,168.9,62.2,168.9,160.7,168.9,161.9-76.2,161.9-168.9Z"/>
    <path d="M5991.1,948.8l130.2,73.9c-55.1,88-152.5,145.4-267.4,145.4-178.3,0-314.3-138.4-314.3-312s136.1-312,314.3-312,212.3,57.5,267.4,144.3l-130.2,75.1c-27-45.7-73.9-76.2-137.2-76.2-99.7,0-161.9,76.2-161.9,168.9s62.2,168.9,161.9,168.9,110.3-30.5,137.2-76.2Z"/>
    <path d="M6568.2,1152.9l-211.1-282.7v282.7h-147.8V331.9h147.8v478.5l185.3-252.2h171.2l-212.3,274.5,248.7,320.2h-181.8Z"/>
  </g>
</svg>
